<svg xmlns="http://www.w3.org/2000/svg" width="74" height="28.243" viewBox="0 0 74 28.243">
  <g id="グループ_10695" data-name="グループ 10695" transform="translate(-23.941 -38.343)">
    <path id="パス_46289" data-name="パス 46289" d="M93.452,38.353a6.842,6.842,0,0,0-2.809.545q-2.694,1.134-4.184,5.471Q83.16,54,81.709,58.313a17.1,17.1,0,0,1-2.357,2.864,6.128,6.128,0,0,1-4.119,2.068q-1.807,0-1.4-1.917c.049-.229.39-1.278,1.018-3.131,5.3-4.743,9.676-11.975,10.443-14.573q.126-.4.205-.772.959-4.486-4.342-4.5a6.843,6.843,0,0,0-2.809.545q-2.694,1.134-4.184,5.471Q69.154,59.006,68.4,61.385c-.061.068-.12.138-.182.205a3.937,3.937,0,0,1-2.744,1.557q-1.305,0-1.261-.96a4.1,4.1,0,0,1,.1-.864,5.62,5.62,0,0,1,.464-1.231q.023-.11,3.957-11.174a6.151,6.151,0,0,0-1.893-.262,8.22,8.22,0,0,0-2.3.344A3.412,3.412,0,0,0,62.8,50.006l-2.3,6.729c-.213.388-.424.764-.633,1.116q-2.917,4.919-5.2,4.914a1.5,1.5,0,0,1-1.344-.574,1.765,1.765,0,0,1-.251-1.353c.056-.184.122-.394.2-.633q.519-1.618,1.66-4.916l.022.031.985-2.861h0l.317-.919,3.422.016.605-2.831-3.021-.015q2.729-7.682,2.775-7.9.511-2.39-2.541-2.4a7.626,7.626,0,0,0-2.312.289l-3.424,10-3.454-.009a4.777,4.777,0,0,0-.712,1.635q-.177.827-.216,1.2l3.253.008.145.074-2.133,6.251q-2.917,4.919-5.2,4.914a1.5,1.5,0,0,1-1.344-.574,1.643,1.643,0,0,1-.223-1.307q.157-.735,7.682-22.2a4.905,4.905,0,0,0-1.865-.3,12.8,12.8,0,0,0-2.529.269,4.013,4.013,0,0,0-1.668.566L37.043,58.15q-1.728,5.073-5.3,5.064a2.172,2.172,0,0,1-2.02-.888,3.129,3.129,0,0,1-.227-2.318,5.972,5.972,0,0,1,.205-.772l5.123-14.372a15.523,15.523,0,0,0,.49-1.728q1.022-4.779-3.918-4.793a6.782,6.782,0,0,0-4.186,1.351A5.981,5.981,0,0,0,24.9,43.367q-.747,3.494,2.678,6.077l-2.965,8.6a12.358,12.358,0,0,0-.451,1.544q-.716,3.346.927,5.153T30.5,66.559a11.192,11.192,0,0,0,3.949-.616,9.882,9.882,0,0,0,3.212-2.052h.12q.51,2.687,3.6,2.695a7.764,7.764,0,0,0,5.583-2.432c.054-.053.109-.109.163-.164a18.454,18.454,0,0,0,1.585-1.856v.01h0c.253,3.621,1.829,4.436,3.891,4.442a7.764,7.764,0,0,0,5.583-2.432c.054-.053.108-.109.163-.164.089-.09.177-.19.266-.284a3.046,3.046,0,0,0,.716,1.633q1.045,1.217,3.737,1.224a7.96,7.96,0,0,0,5-1.79c.113-.088.221-.182.331-.274a3.026,3.026,0,0,0,.518.81,4.616,4.616,0,0,0,3.6,1.278,10.52,10.52,0,0,0,4.666-1.055,12,12,0,0,0,3.225-2.222l.006-.006a3.484,3.484,0,0,0,.273,1.2,3.03,3.03,0,0,0,.518.81,4.617,4.617,0,0,0,3.6,1.278,10.519,10.519,0,0,0,4.666-1.055,12,12,0,0,0,3.225-2.222c.043-.042.087-.081.129-.124a18.225,18.225,0,0,0,4.142-5.839,2.924,2.924,0,0,0-.7-.866,2.722,2.722,0,0,0-.874-.609,22.971,22.971,0,0,1-1.4,2.423,17.107,17.107,0,0,1-2.37,2.883,6.129,6.129,0,0,1-4.119,2.068q-1.807,0-1.4-1.917c.049-.229.391-1.278,1.018-3.131,5.3-4.743,9.676-11.976,10.443-14.573q.126-.4.205-.772Q98.753,38.367,93.452,38.353ZM77.63,49.97l.356-1.1q.2-.551.955-2.867a25.881,25.881,0,0,1,1.278-3.345,1.767,1.767,0,0,1,1.461-1.1c.964,0,1.382.607,1.068,1.769-.609,2.253-3.416,7.007-6.483,10.694ZM28.7,46.246a3.191,3.191,0,0,1-1.206-3,1.64,1.64,0,0,1,1.692-1.523q.883,0,.632,1.179-.143.478-.792,2.389Zm66.341-2.922c-.609,2.253-3.416,7.007-6.483,10.694l1.365-4.048.356-1.1q.2-.551.955-2.867a25.856,25.856,0,0,1,1.278-3.345,1.766,1.766,0,0,1,1.461-1.1C94.937,41.558,95.355,42.162,95.041,43.324Z" transform="translate(0 0)"/>
    <path id="パス_46290" data-name="パス 46290" d="M251.536,44.281a3.978,3.978,0,0,0,2.45-.84,3.438,3.438,0,0,0,1.384-2.057,2.27,2.27,0,0,0-.5-2.08,2.638,2.638,0,0,0-2.084-.87,3.863,3.863,0,0,0-2.434.858,3.532,3.532,0,0,0-1.368,2.075,2.245,2.245,0,0,0,.483,2.061A2.612,2.612,0,0,0,251.536,44.281Z" transform="translate(-183.602 -0.075)"/>
  </g>
</svg>
